<?xml version="1.0" encoding="UTF-8"?> <svg xmlns="http://www.w3.org/2000/svg" width="60" height="60" viewBox="0 0 60 60" fill="none"> <path fill-rule="evenodd" clip-rule="evenodd" d="M24.7003 2.25H25.8797H34.1208H35.3002L35.5784 3.39609L36.7473 8.21002L40.6372 9.82129L44.8675 7.24388L45.8747 6.63025L46.7086 7.4642L52.536 13.2916L53.3699 14.1255L52.7563 15.1327L50.1789 19.363L51.7901 23.2529L56.6039 24.4217L57.75 24.7V25.8793V34.1205V35.2999L56.6039 35.5781L51.7901 36.7469L50.1789 40.6368L52.7564 44.8673L53.37 45.8744L52.536 46.7084L46.7087 52.5357L45.8748 53.3697L44.8676 52.756L40.6372 50.1785L36.7473 51.7898L35.5784 56.6039L35.3001 57.75H34.1207H25.8798H24.7004L24.4221 56.6039L23.2532 51.7898L19.3633 50.1785L15.1326 52.7562L14.1254 53.3698L13.2915 52.5359L7.46427 46.7087L6.63032 45.8747L7.24396 44.8676L9.82161 40.6368L8.21035 36.7469L3.39608 35.578L2.25 35.2997V34.1204V25.8795V24.7001L3.39608 24.4218L8.21035 23.2529L9.82161 19.363L7.24402 15.1324L6.63039 14.1252L7.46434 13.2912L13.2916 7.464L14.1255 6.63005L15.1327 7.2437L19.3633 9.82129L23.2532 8.21002L24.4221 3.39609L24.7003 2.25ZM30 22.75C25.9959 22.75 22.75 25.9959 22.75 30C22.75 34.0041 25.9959 37.25 30 37.25C34.0041 37.25 37.25 34.0041 37.25 30C37.25 25.9959 34.0041 22.75 30 22.75Z" fill="url(#paint0_linear)"></path> <defs> <linearGradient id="paint0_linear" x1="24.1705" y1="-27.5342" x2="77.1023" y2="-17.057" gradientUnits="userSpaceOnUse"> <stop stop-color="#297CB1"></stop> <stop offset="0.473214" stop-color="#4D9FD3"></stop> <stop offset="1" stop-color="#00558C"></stop> </linearGradient> </defs> </svg> 