<?xml version="1.0" encoding="UTF-8"?> <svg xmlns="http://www.w3.org/2000/svg" width="24" height="24" viewBox="0 0 24 24" fill="none"> <path d="M12 2C6.5 2 2 6.5 2 12C2 17.5 6.5 22 12 22C17.5 22 22 17.5 22 12C22 6.5 17.5 2 12 2ZM16.2 10.3L11.4 15.1C11 15.5 10.4 15.5 10 15.1L7.8 12.9C7.4 12.5 7.4 11.9 7.8 11.5C8.2 11.1 8.8 11.1 9.2 11.5L10.7 13L14.8 8.9C15.2 8.5 15.8 8.5 16.2 8.9C16.6 9.3 16.6 9.9 16.2 10.3Z" fill="url(#paint0_linear)"></path> <defs> <linearGradient id="paint0_linear" x1="9.89929" y1="-8.73304" x2="28.9738" y2="-4.95749" gradientUnits="userSpaceOnUse"> <stop stop-color="#297CB1"></stop> <stop offset="0.473214" stop-color="#4D9FD3"></stop> <stop offset="1" stop-color="#00558C"></stop> </linearGradient> </defs> </svg> 