<?xml version="1.0" encoding="UTF-8"?> <svg xmlns="http://www.w3.org/2000/svg" width="24" height="24" viewBox="0 0 24 24" fill="none"> <path d="M22 10.1C22.1 9.6 21.7 9 21.2 9L15.5 8.2L12.9 3C12.8 2.8 12.7 2.7 12.5 2.6C12 2.3 11.4 2.5 11.1 3L8.6 8.2L2.9 9C2.6 9 2.4 9.1 2.3 9.3C1.9 9.7 1.9 10.3 2.3 10.7L6.4 14.7L5.4 20.4C5.4 20.6 5.4 20.8 5.5 21C5.8 21.5 6.4 21.7 6.9 21.4L12 18.7L17.1 21.4C17.2 21.5 17.4 21.5 17.6 21.5C17.7 21.5 17.7 21.5 17.8 21.5C18.3 21.4 18.7 20.9 18.6 20.3L17.6 14.6L21.7 10.6C21.9 10.5 22 10.3 22 10.1Z" fill="url(#paint0_linear)"></path> <defs> <linearGradient id="paint0_linear" x1="9.90539" y1="-7.7813" x2="28.9227" y2="-3.83291" gradientUnits="userSpaceOnUse"> <stop stop-color="#297CB1"></stop> <stop offset="0.473214" stop-color="#4D9FD3"></stop> <stop offset="1" stop-color="#00558C"></stop> </linearGradient> </defs> </svg> 