<?xml version="1.0" encoding="UTF-8"?> <svg xmlns="http://www.w3.org/2000/svg" width="24" height="24" viewBox="0 0 24 24" fill="none"> <path d="M21 2H15C14.4 2 14 2.4 14 3C14 3.6 14.4 4 15 4H20V9C20 9.6 20.4 10 21 10C21.6 10 22 9.6 22 9V3C22 2.4 21.6 2 21 2ZM3 10C3.6 10 4 9.6 4 9V4H9C9.6 4 10 3.6 10 3C10 2.4 9.6 2 9 2H3C2.4 2 2 2.4 2 3V9C2 9.6 2.4 10 3 10ZM9 20H4V15C4 14.4 3.6 14 3 14C2.4 14 2 14.4 2 15V21C2 21.6 2.4 22 3 22H9C9.6 22 10 21.6 10 21C10 20.4 9.6 20 9 20ZM21 14C20.4 14 20 14.4 20 15V20H15C14.4 20 14 20.4 14 21C14 21.6 14.4 22 15 22H21C21.6 22 22 21.6 22 21V15C22 14.4 21.6 14 21 14ZM12 6C10.3 6 9 7.3 9 9V10C7.9 10 7 10.9 7 12V16C7 17.1 7.9 18 9 18H15C16.1 18 17 17.1 17 16V12C17 10.9 16.1 10 15 10V9C15 7.3 13.7 6 12 6ZM13 10H11V9C11 8.4 11.4 8 12 8C12.6 8 13 8.4 13 9V10Z" fill="url(#paint0_linear)"></path> <defs> <linearGradient id="paint0_linear" x1="9.89929" y1="-8.73304" x2="28.9738" y2="-4.95749" gradientUnits="userSpaceOnUse"> <stop stop-color="#297CB1"></stop> <stop offset="0.473214" stop-color="#4D9FD3"></stop> <stop offset="1" stop-color="#00558C"></stop> </linearGradient> </defs> </svg> 