<?xml version="1.0" encoding="UTF-8"?> <svg xmlns="http://www.w3.org/2000/svg" width="564" height="548" viewBox="0 0 564 548" fill="none"> <circle opacity="0.2" cx="309" cy="255" r="255" fill="url(#paint0_radial)"></circle> <path d="M39.2399 416.373L209.749 539.604L135.878 246.863M39.2399 416.373L19.5024 526.323M39.2399 416.373L187.399 453.178L189.645 377.905M39.2399 416.373L89.4666 387.614L94.9867 430.278M135.878 246.863L237.966 379.951L296.368 294.873M135.878 246.863L117.287 472.777L19.5024 526.323M135.878 246.863L296.368 294.873M296.368 294.873L390.24 352.263M296.368 294.873L230.556 327.505M296.368 294.873L278.26 412.328M296.368 294.873L388.323 305.474M390.24 352.263L506.031 227.423L559.085 236.796L535.139 221.044L495.596 271.921M390.24 352.263L363.83 263.997L309.944 355.296M390.24 352.263L487.836 350.452L495.596 271.921M160.771 504.153L19.5024 526.323M189.645 377.905L215.089 397.647M189.645 377.905L125.737 370.233L176.153 299.239L230.556 327.505M189.645 377.905L230.556 327.505M215.089 397.647L230.556 327.505M215.089 397.647L278.26 412.328M230.556 327.505L309.944 355.296M230.556 327.505L278.26 412.328M309.944 355.296L388.323 305.474M309.944 355.296L278.26 412.328M388.323 305.474L459.166 382.795L434.611 218.215L495.596 271.921" stroke="#297CB1" stroke-miterlimit="10"></path> <circle opacity="0.2" cx="18" cy="525" r="18" fill="url(#paint1_radial)"></circle> <path d="M34.5 525C34.5 533.008 28.0081 539.5 20 539.5C11.9919 539.5 5.5 533.008 5.5 525C5.5 516.992 11.9919 510.5 20 510.5C28.0081 510.5 34.5 516.992 34.5 525Z" fill="url(#paint2_radial)" stroke="#297CB1"></path> <path d="M217.5 540C217.5 544.142 214.142 547.5 210 547.5C205.858 547.5 202.5 544.142 202.5 540C202.5 535.858 205.858 532.5 210 532.5C214.142 532.5 217.5 535.858 217.5 540Z" fill="url(#paint3_radial)" stroke="#297CB1"></path> <path d="M167.5 504C167.5 508.142 164.142 511.5 160 511.5C155.858 511.5 152.5 508.142 152.5 504C152.5 499.858 155.858 496.5 160 496.5C164.142 496.5 167.5 499.858 167.5 504Z" fill="url(#paint4_radial)" stroke="#297CB1"></path> <path d="M122.5 472.5C122.5 475.814 119.814 478.5 116.5 478.5C113.186 478.5 110.5 475.814 110.5 472.5C110.5 469.186 113.186 466.5 116.5 466.5C119.814 466.5 122.5 469.186 122.5 472.5Z" fill="url(#paint5_radial)" stroke="#297CB1"></path> <path d="M174.5 375.5C174.5 378.814 171.814 381.5 168.5 381.5C165.186 381.5 162.5 378.814 162.5 375.5C162.5 372.186 165.186 369.5 168.5 369.5C171.814 369.5 174.5 372.186 174.5 375.5Z" fill="url(#paint6_radial)" stroke="#297CB1"></path> <path d="M195.5 378.5C195.5 381.814 192.814 384.5 189.5 384.5C186.186 384.5 183.5 381.814 183.5 378.5C183.5 375.186 186.186 372.5 189.5 372.5C192.814 372.5 195.5 375.186 195.5 378.5Z" fill="url(#paint7_radial)" stroke="#297CB1"></path> <path d="M236.5 327.5C236.5 330.814 233.814 333.5 230.5 333.5C227.186 333.5 224.5 330.814 224.5 327.5C224.5 324.186 227.186 321.5 230.5 321.5C233.814 321.5 236.5 324.186 236.5 327.5Z" fill="url(#paint8_radial)" stroke="#297CB1"></path> <path d="M243.5 379.5C243.5 382.814 240.814 385.5 237.5 385.5C234.186 385.5 231.5 382.814 231.5 379.5C231.5 376.186 234.186 373.5 237.5 373.5C240.814 373.5 243.5 376.186 243.5 379.5Z" fill="url(#paint9_radial)" stroke="#297CB1"></path> <path d="M256.5 363.5C256.5 366.814 253.814 369.5 250.5 369.5C247.186 369.5 244.5 366.814 244.5 363.5C244.5 360.186 247.186 357.5 250.5 357.5C253.814 357.5 256.5 360.186 256.5 363.5Z" fill="url(#paint10_radial)" stroke="#297CB1"></path> <path d="M229.5 360.5C229.5 363.814 226.814 366.5 223.5 366.5C220.186 366.5 217.5 363.814 217.5 360.5C217.5 357.186 220.186 354.5 223.5 354.5C226.814 354.5 229.5 357.186 229.5 360.5Z" fill="url(#paint11_radial)" stroke="#297CB1"></path> <path d="M182.5 299.5C182.5 302.814 179.814 305.5 176.5 305.5C173.186 305.5 170.5 302.814 170.5 299.5C170.5 296.186 173.186 293.5 176.5 293.5C179.814 293.5 182.5 296.186 182.5 299.5Z" fill="url(#paint12_radial)" stroke="#297CB1"></path> <path d="M141.5 247.5C141.5 250.814 138.814 253.5 135.5 253.5C132.186 253.5 129.5 250.814 129.5 247.5C129.5 244.186 132.186 241.5 135.5 241.5C138.814 241.5 141.5 244.186 141.5 247.5Z" fill="url(#paint13_radial)" stroke="#297CB1"></path> <path d="M44.5 416.5C44.5 419.814 41.8137 422.5 38.5 422.5C35.1863 422.5 32.5 419.814 32.5 416.5C32.5 413.186 35.1863 410.5 38.5 410.5C41.8137 410.5 44.5 413.186 44.5 416.5Z" fill="url(#paint14_radial)" stroke="#297CB1"></path> <path d="M98.5 387C98.5 392.247 94.2467 396.5 89 396.5C83.7533 396.5 79.5 392.247 79.5 387C79.5 381.753 83.7533 377.5 89 377.5C94.2467 377.5 98.5 381.753 98.5 387Z" fill="url(#paint15_radial)" stroke="#297CB1"></path> <path d="M104.5 430C104.5 435.247 100.247 439.5 95 439.5C89.7533 439.5 85.5 435.247 85.5 430C85.5 424.753 89.7533 420.5 95 420.5C100.247 420.5 104.5 424.753 104.5 430Z" fill="url(#paint16_radial)" stroke="#297CB1"></path> <path d="M144.5 368.5C144.5 377.889 136.889 385.5 127.5 385.5C118.111 385.5 110.5 377.889 110.5 368.5C110.5 359.111 118.111 351.5 127.5 351.5C136.889 351.5 144.5 359.111 144.5 368.5Z" fill="url(#paint17_radial)" stroke="#297CB1"></path> <path d="M312.5 295.5C312.5 304.889 304.889 312.5 295.5 312.5C286.111 312.5 278.5 304.889 278.5 295.5C278.5 286.111 286.111 278.5 295.5 278.5C304.889 278.5 312.5 286.111 312.5 295.5Z" fill="url(#paint18_radial)" stroke="#297CB1"></path> <path d="M289.5 412.5C289.5 419.127 284.127 424.5 277.5 424.5C270.873 424.5 265.5 419.127 265.5 412.5C265.5 405.873 270.873 400.5 277.5 400.5C284.127 400.5 289.5 405.873 289.5 412.5Z" fill="url(#paint19_radial)" stroke="#297CB1"></path> <path d="M199.5 452.5C199.5 459.127 194.127 464.5 187.5 464.5C180.873 464.5 175.5 459.127 175.5 452.5C175.5 445.873 180.873 440.5 187.5 440.5C194.127 440.5 199.5 445.873 199.5 452.5Z" fill="url(#paint20_radial)" stroke="#297CB1"></path> <defs> <radialGradient id="paint0_radial" cx="0" cy="0" r="1" gradientUnits="userSpaceOnUse" gradientTransform="translate(309 255) rotate(90) scale(255)"> <stop stop-color="#297CB1"></stop> <stop offset="1" stop-color="#297CB1" stop-opacity="0"></stop> </radialGradient> <radialGradient id="paint1_radial" cx="0" cy="0" r="1" gradientUnits="userSpaceOnUse" gradientTransform="translate(18 525) rotate(90) scale(18)"> <stop stop-color="#4EC0CB"></stop> <stop offset="1" stop-color="#4EC0CB" stop-opacity="0"></stop> </radialGradient> <radialGradient id="paint2_radial" cx="0" cy="0" r="1" gradientUnits="userSpaceOnUse" gradientTransform="translate(20 525) rotate(90) scale(15)"> <stop stop-color="#297CB1"></stop> <stop offset="1" stop-color="#297CB1" stop-opacity="0"></stop> </radialGradient> <radialGradient id="paint3_radial" cx="0" cy="0" r="1" gradientUnits="userSpaceOnUse" gradientTransform="translate(210 540) rotate(90) scale(8)"> <stop stop-color="#297CB1"></stop> <stop offset="1" stop-color="#297CB1" stop-opacity="0"></stop> </radialGradient> <radialGradient id="paint4_radial" cx="0" cy="0" r="1" gradientUnits="userSpaceOnUse" gradientTransform="translate(160 504) rotate(90) scale(8)"> <stop stop-color="#297CB1"></stop> <stop offset="1" stop-color="#297CB1" stop-opacity="0"></stop> </radialGradient> <radialGradient id="paint5_radial" cx="0" cy="0" r="1" gradientUnits="userSpaceOnUse" gradientTransform="translate(116.5 472.5) rotate(90) scale(6.5)"> <stop stop-color="#297CB1"></stop> <stop offset="1" stop-color="#297CB1" stop-opacity="0"></stop> </radialGradient> <radialGradient id="paint6_radial" cx="0" cy="0" r="1" gradientUnits="userSpaceOnUse" gradientTransform="translate(167.5 376.5) rotate(90) scale(6.5)"> <stop stop-color="#297CB1"></stop> <stop offset="1" stop-color="#297CB1" stop-opacity="0"></stop> </radialGradient> <radialGradient id="paint7_radial" cx="0" cy="0" r="1" gradientUnits="userSpaceOnUse" gradientTransform="translate(189.5 378.5) rotate(90) scale(6.5)"> <stop stop-color="#297CB1"></stop> <stop offset="1" stop-color="#297CB1" stop-opacity="0"></stop> </radialGradient> <radialGradient id="paint8_radial" cx="0" cy="0" r="1" gradientUnits="userSpaceOnUse" gradientTransform="translate(230.5 327.5) rotate(90) scale(6.5)"> <stop stop-color="#297CB1"></stop> <stop offset="1" stop-color="#297CB1" stop-opacity="0"></stop> </radialGradient> <radialGradient id="paint9_radial" cx="0" cy="0" r="1" gradientUnits="userSpaceOnUse" gradientTransform="translate(237.5 379.5) rotate(90) scale(6.5)"> <stop stop-color="#297CB1"></stop> <stop offset="1" stop-color="#297CB1" stop-opacity="0"></stop> </radialGradient> <radialGradient id="paint10_radial" cx="0" cy="0" r="1" gradientUnits="userSpaceOnUse" gradientTransform="translate(250.5 363.5) rotate(90) scale(6.5)"> <stop stop-color="#297CB1"></stop> <stop offset="1" stop-color="#297CB1" stop-opacity="0"></stop> </radialGradient> <radialGradient id="paint11_radial" cx="0" cy="0" r="1" gradientUnits="userSpaceOnUse" gradientTransform="translate(223.5 360.5) rotate(90) scale(6.5)"> <stop stop-color="#297CB1"></stop> <stop offset="1" stop-color="#297CB1" stop-opacity="0"></stop> </radialGradient> <radialGradient id="paint12_radial" cx="0" cy="0" r="1" gradientUnits="userSpaceOnUse" gradientTransform="translate(176.5 299.5) rotate(111.801) scale(5.38516)"> <stop stop-color="#297CB1"></stop> <stop offset="1" stop-color="#297CB1" stop-opacity="0"></stop> </radialGradient> <radialGradient id="paint13_radial" cx="0" cy="0" r="1" gradientUnits="userSpaceOnUse" gradientTransform="translate(135.5 247.5) rotate(90) scale(6.5)"> <stop stop-color="#297CB1"></stop> <stop offset="1" stop-color="#297CB1" stop-opacity="0"></stop> </radialGradient> <radialGradient id="paint14_radial" cx="0" cy="0" r="1" gradientUnits="userSpaceOnUse" gradientTransform="translate(38.5 416.5) rotate(90) scale(6.5)"> <stop stop-color="#297CB1"></stop> <stop offset="1" stop-color="#297CB1" stop-opacity="0"></stop> </radialGradient> <radialGradient id="paint15_radial" cx="0" cy="0" r="1" gradientUnits="userSpaceOnUse" gradientTransform="translate(89 387) rotate(90) scale(10)"> <stop stop-color="#297CB1"></stop> <stop offset="1" stop-color="#297CB1" stop-opacity="0"></stop> </radialGradient> <radialGradient id="paint16_radial" cx="0" cy="0" r="1" gradientUnits="userSpaceOnUse" gradientTransform="translate(95 430) rotate(90) scale(10)"> <stop stop-color="#297CB1"></stop> <stop offset="1" stop-color="#297CB1" stop-opacity="0"></stop> </radialGradient> <radialGradient id="paint17_radial" cx="0" cy="0" r="1" gradientUnits="userSpaceOnUse" gradientTransform="translate(127.5 368.5) rotate(90) scale(17.5)"> <stop stop-color="#297CB1"></stop> <stop offset="1" stop-color="#297CB1" stop-opacity="0"></stop> </radialGradient> <radialGradient id="paint18_radial" cx="0" cy="0" r="1" gradientUnits="userSpaceOnUse" gradientTransform="translate(295.5 295.5) rotate(90) scale(17.5)"> <stop stop-color="#297CB1"></stop> <stop offset="1" stop-color="#297CB1" stop-opacity="0"></stop> </radialGradient> <radialGradient id="paint19_radial" cx="0" cy="0" r="1" gradientUnits="userSpaceOnUse" gradientTransform="translate(277.5 412.5) rotate(90) scale(12.5)"> <stop stop-color="#297CB1"></stop> <stop offset="1" stop-color="#297CB1" stop-opacity="0"></stop> </radialGradient> <radialGradient id="paint20_radial" cx="0" cy="0" r="1" gradientUnits="userSpaceOnUse" gradientTransform="translate(187.5 452.5) rotate(90) scale(12.5)"> <stop stop-color="#297CB1"></stop> <stop offset="1" stop-color="#297CB1" stop-opacity="0"></stop> </radialGradient> </defs> </svg> 