<?xml version="1.0" encoding="UTF-8"?> <svg xmlns="http://www.w3.org/2000/svg" width="651" height="822" viewBox="0 0 651 822" fill="none"> <circle opacity="0.2" cx="408" cy="579" r="243" fill="url(#paint0_radial)"></circle> <path d="M401.315 707.663L536.639 435.682L137.306 609.979M401.315 707.663L562.735 709.539M401.315 707.663L418.902 487.958L311.139 502.421M401.315 707.663L348.709 642.963L407.98 624.879M137.306 609.979L302.821 433.302L167.974 370.292M137.306 609.979L463.205 583.183L562.735 709.539M137.306 609.979L167.974 370.292M167.974 370.292L227.321 223.294M167.974 370.292L229.717 456.103M167.974 370.292L339.136 368.289M167.974 370.292L161.263 236.792M227.321 223.294L22.324 87.8326L23.1158 9.96582L6.37695 47.7594L88.1874 92.1094M227.321 223.294L107.833 281.596L250.482 336.612M227.321 223.294L201.953 84.6475L88.1874 92.1094M497.744 513.961L562.735 709.539M311.139 502.421L333.27 461.515M311.139 502.421L315.569 595.372L202.437 540.54L229.717 456.103M311.139 502.421L229.717 456.103M333.27 461.515L229.717 456.103M333.27 461.515L339.136 368.289M229.717 456.103L250.482 336.612M229.717 456.103L339.136 368.289M250.482 336.612L161.263 236.792M250.482 336.612L339.136 368.289M161.263 236.792L254.428 117.805L25.9645 191.488L88.1874 92.1094" stroke="#4899CE" stroke-miterlimit="10"></path> <path d="M143 609.5C143 612.538 140.538 615 137.5 615C134.462 615 132 612.538 132 609.5C132 606.462 134.462 604 137.5 604C140.538 604 143 606.462 143 609.5Z" fill="url(#paint1_radial)"></path> <path d="M591.5 710C591.5 727.949 576.949 742.5 559 742.5C541.051 742.5 526.5 727.949 526.5 710C526.5 692.051 541.051 677.5 559 677.5C576.949 677.5 591.5 692.051 591.5 710Z" fill="url(#paint2_radial)" stroke="#297CB1"></path> <path d="M556.5 436.5C556.5 447.546 547.546 456.5 536.5 456.5C525.454 456.5 516.5 447.546 516.5 436.5C516.5 425.454 525.454 416.5 536.5 416.5C547.546 416.5 556.5 425.454 556.5 436.5Z" fill="url(#paint3_radial)" stroke="#297CB1"></path> <path d="M427.5 488.5C427.5 493.471 423.471 497.5 418.5 497.5C413.529 497.5 409.5 493.471 409.5 488.5C409.5 483.529 413.529 479.5 418.5 479.5C423.471 479.5 427.5 483.529 427.5 488.5Z" fill="url(#paint4_radial)" stroke="#297CB1"></path> <path d="M319.5 502.5C319.5 507.471 315.471 511.5 310.5 511.5C305.529 511.5 301.5 507.471 301.5 502.5C301.5 497.529 305.529 493.5 310.5 493.5C315.471 493.5 319.5 497.529 319.5 502.5Z" fill="url(#paint5_radial)" stroke="#297CB1"></path> <path d="M271.5 474.5C271.5 479.471 267.471 483.5 262.5 483.5C257.529 483.5 253.5 479.471 253.5 474.5C253.5 469.529 257.529 465.5 262.5 465.5C267.471 465.5 271.5 469.529 271.5 474.5Z" fill="url(#paint6_radial)" stroke="#297CB1"></path> <path d="M506.5 513C506.5 518.247 502.247 522.5 497 522.5C491.753 522.5 487.5 518.247 487.5 513C487.5 507.753 491.753 503.5 497 503.5C502.247 503.5 506.5 507.753 506.5 513Z" fill="url(#paint7_radial)" stroke="#297CB1"></path> <path d="M306.5 433.125C306.5 435.886 304.261 438.125 301.5 438.125C298.739 438.125 296.5 435.886 296.5 433.125C296.5 430.364 298.739 428.125 301.5 428.125C304.261 428.125 306.5 430.364 306.5 433.125Z" fill="url(#paint8_radial)" stroke="#297CB1"></path> <path d="M279.5 420.5C279.5 423.261 277.261 425.5 274.5 425.5C271.739 425.5 269.5 423.261 269.5 420.5C269.5 417.739 271.739 415.5 274.5 415.5C277.261 415.5 279.5 417.739 279.5 420.5Z" fill="url(#paint9_radial)" stroke="#297CB1"></path> <path d="M209.5 541C209.5 544.59 206.59 547.5 203 547.5C199.41 547.5 196.5 544.59 196.5 541C196.5 537.41 199.41 534.5 203 534.5C206.59 534.5 209.5 537.41 209.5 541Z" fill="url(#paint10_radial)" stroke="#297CB1"></path> <path d="M255.5 562C255.5 567.247 251.247 571.5 246 571.5C240.753 571.5 236.5 567.247 236.5 562C236.5 556.753 240.753 552.5 246 552.5C251.247 552.5 255.5 556.753 255.5 562Z" fill="url(#paint11_radial)" stroke="#297CB1"></path> <path d="M323.5 533C323.5 538.247 319.247 542.5 314 542.5C308.753 542.5 304.5 538.247 304.5 533C304.5 527.753 308.753 523.5 314 523.5C319.247 523.5 323.5 527.753 323.5 533Z" fill="url(#paint12_radial)" stroke="#297CB1"></path> <path d="M325.5 596C325.5 601.247 321.247 605.5 316 605.5C310.753 605.5 306.5 601.247 306.5 596C306.5 590.753 310.753 586.5 316 586.5C321.247 586.5 325.5 590.753 325.5 596Z" fill="url(#paint13_radial)" stroke="#297CB1"></path> <path d="M420.5 586.5C420.5 591.471 416.471 595.5 411.5 595.5C406.529 595.5 402.5 591.471 402.5 586.5C402.5 581.529 406.529 577.5 411.5 577.5C416.471 577.5 420.5 581.529 420.5 586.5Z" fill="url(#paint14_radial)" stroke="#297CB1"></path> <path d="M416.5 624.5C416.5 629.471 412.471 633.5 407.5 633.5C402.529 633.5 398.5 629.471 398.5 624.5C398.5 619.529 402.529 615.5 407.5 615.5C412.471 615.5 416.5 619.529 416.5 624.5Z" fill="url(#paint15_radial)" stroke="#297CB1"></path> <path d="M357.5 643.5C357.5 648.471 353.471 652.5 348.5 652.5C343.529 652.5 339.5 648.471 339.5 643.5C339.5 638.529 343.529 634.5 348.5 634.5C353.471 634.5 357.5 638.529 357.5 643.5Z" fill="url(#paint16_radial)" stroke="#297CB1"></path> <path d="M410.5 705.5C410.5 710.471 406.471 714.5 401.5 714.5C396.529 714.5 392.5 710.471 392.5 705.5C392.5 700.529 396.529 696.5 401.5 696.5C406.471 696.5 410.5 700.529 410.5 705.5Z" fill="url(#paint17_radial)" stroke="#297CB1"></path> <path d="M346.5 369.5C346.5 374.471 342.471 378.5 337.5 378.5C332.529 378.5 328.5 374.471 328.5 369.5C328.5 364.529 332.529 360.5 337.5 360.5C342.471 360.5 346.5 364.529 346.5 369.5Z" fill="url(#paint18_radial)" stroke="#297CB1"></path> <path d="M342.5 462.5C342.5 467.471 338.471 471.5 333.5 471.5C328.529 471.5 324.5 467.471 324.5 462.5C324.5 457.529 328.529 453.5 333.5 453.5C338.471 453.5 342.5 457.529 342.5 462.5Z" fill="url(#paint19_radial)" stroke="#297CB1"></path> <path d="M31.5 9.5C31.5 14.4706 27.4706 18.5 22.5 18.5C17.5294 18.5 13.5 14.4706 13.5 9.5C13.5 4.52944 17.5294 0.5 22.5 0.5C27.4706 0.5 31.5 4.52944 31.5 9.5Z" fill="url(#paint20_radial)" stroke="#297CB1"></path> <path d="M10.5 48.5C10.5 51.2614 8.26142 53.5 5.5 53.5C2.73858 53.5 0.5 51.2614 0.5 48.5C0.5 45.7386 2.73858 43.5 5.5 43.5C8.26142 43.5 10.5 45.7386 10.5 48.5Z" fill="url(#paint21_radial)" stroke="#297CB1"></path> <path d="M96.5 93.5C96.5 98.4706 92.4706 102.5 87.5 102.5C82.5294 102.5 78.5 98.4706 78.5 93.5C78.5 88.5294 82.5294 84.5 87.5 84.5C92.4706 84.5 96.5 88.5294 96.5 93.5Z" fill="url(#paint22_radial)" stroke="#297CB1"></path> <path d="M208.5 84.5C208.5 88.366 205.366 91.5 201.5 91.5C197.634 91.5 194.5 88.366 194.5 84.5C194.5 80.634 197.634 77.5 201.5 77.5C205.366 77.5 208.5 80.634 208.5 84.5Z" fill="url(#paint23_radial)" stroke="#297CB1"></path> <path d="M481.5 585.5C481.5 595.441 473.441 603.5 463.5 603.5C453.559 603.5 445.5 595.441 445.5 585.5C445.5 575.559 453.559 567.5 463.5 567.5C473.441 567.5 481.5 575.559 481.5 585.5Z" fill="url(#paint24_radial)" stroke="#297CB1"></path> <defs> <radialGradient id="paint0_radial" cx="0" cy="0" r="1" gradientUnits="userSpaceOnUse" gradientTransform="translate(408 579) rotate(90) scale(243)"> <stop stop-color="#297CB1"></stop> <stop offset="1" stop-color="#297CB1" stop-opacity="0"></stop> </radialGradient> <radialGradient id="paint1_radial" cx="0" cy="0" r="1" gradientUnits="userSpaceOnUse" gradientTransform="translate(137.5 609.5) rotate(90) scale(5.5)"> <stop stop-color="#297CB1"></stop> <stop offset="1" stop-color="#297CB1" stop-opacity="0"></stop> </radialGradient> <radialGradient id="paint2_radial" cx="0" cy="0" r="1" gradientUnits="userSpaceOnUse" gradientTransform="translate(559 710) rotate(90) scale(33)"> <stop stop-color="#297CB1"></stop> <stop offset="1" stop-color="#297CB1" stop-opacity="0"></stop> </radialGradient> <radialGradient id="paint3_radial" cx="0" cy="0" r="1" gradientUnits="userSpaceOnUse" gradientTransform="translate(536.5 436.5) rotate(90) scale(20.5)"> <stop stop-color="#297CB1"></stop> <stop offset="1" stop-color="#297CB1" stop-opacity="0"></stop> </radialGradient> <radialGradient id="paint4_radial" cx="0" cy="0" r="1" gradientUnits="userSpaceOnUse" gradientTransform="translate(418.5 488.5) rotate(90) scale(9.5)"> <stop stop-color="#297CB1"></stop> <stop offset="1" stop-color="#297CB1" stop-opacity="0"></stop> </radialGradient> <radialGradient id="paint5_radial" cx="0" cy="0" r="1" gradientUnits="userSpaceOnUse" gradientTransform="translate(310.5 502.5) rotate(90) scale(9.5)"> <stop stop-color="#297CB1"></stop> <stop offset="1" stop-color="#297CB1" stop-opacity="0"></stop> </radialGradient> <radialGradient id="paint6_radial" cx="0" cy="0" r="1" gradientUnits="userSpaceOnUse" gradientTransform="translate(262.5 474.5) rotate(90) scale(9.5)"> <stop stop-color="#297CB1"></stop> <stop offset="1" stop-color="#297CB1" stop-opacity="0"></stop> </radialGradient> <radialGradient id="paint7_radial" cx="0" cy="0" r="1" gradientUnits="userSpaceOnUse" gradientTransform="translate(497 513) rotate(90) scale(10)"> <stop stop-color="#297CB1"></stop> <stop offset="1" stop-color="#297CB1" stop-opacity="0"></stop> </radialGradient> <radialGradient id="paint8_radial" cx="0" cy="0" r="1" gradientUnits="userSpaceOnUse" gradientTransform="translate(303.5 433.5) rotate(90) scale(5.5)"> <stop stop-color="#297CB1"></stop> <stop offset="1" stop-color="#297CB1" stop-opacity="0"></stop> </radialGradient> <radialGradient id="paint9_radial" cx="0" cy="0" r="1" gradientUnits="userSpaceOnUse" gradientTransform="translate(274.5 420.5) rotate(90) scale(5.5)"> <stop stop-color="#297CB1"></stop> <stop offset="1" stop-color="#297CB1" stop-opacity="0"></stop> </radialGradient> <radialGradient id="paint10_radial" cx="0" cy="0" r="1" gradientUnits="userSpaceOnUse" gradientTransform="translate(203 541) rotate(90) scale(7)"> <stop stop-color="#297CB1"></stop> <stop offset="1" stop-color="#297CB1" stop-opacity="0"></stop> </radialGradient> <radialGradient id="paint11_radial" cx="0" cy="0" r="1" gradientUnits="userSpaceOnUse" gradientTransform="translate(246 562) rotate(90) scale(10)"> <stop stop-color="#297CB1"></stop> <stop offset="1" stop-color="#297CB1" stop-opacity="0"></stop> </radialGradient> <radialGradient id="paint12_radial" cx="0" cy="0" r="1" gradientUnits="userSpaceOnUse" gradientTransform="translate(314 533) rotate(90) scale(10)"> <stop stop-color="#297CB1"></stop> <stop offset="1" stop-color="#297CB1" stop-opacity="0"></stop> </radialGradient> <radialGradient id="paint13_radial" cx="0" cy="0" r="1" gradientUnits="userSpaceOnUse" gradientTransform="translate(316 596) rotate(90) scale(10)"> <stop stop-color="#297CB1"></stop> <stop offset="1" stop-color="#297CB1" stop-opacity="0"></stop> </radialGradient> <radialGradient id="paint14_radial" cx="0" cy="0" r="1" gradientUnits="userSpaceOnUse" gradientTransform="translate(411.5 586.5) rotate(90) scale(9.5)"> <stop stop-color="#297CB1"></stop> <stop offset="1" stop-color="#297CB1" stop-opacity="0"></stop> </radialGradient> <radialGradient id="paint15_radial" cx="0" cy="0" r="1" gradientUnits="userSpaceOnUse" gradientTransform="translate(407.5 624.5) rotate(90) scale(9.5)"> <stop stop-color="#297CB1"></stop> <stop offset="1" stop-color="#297CB1" stop-opacity="0"></stop> </radialGradient> <radialGradient id="paint16_radial" cx="0" cy="0" r="1" gradientUnits="userSpaceOnUse" gradientTransform="translate(348.5 643.5) rotate(90) scale(9.5)"> <stop stop-color="#297CB1"></stop> <stop offset="1" stop-color="#297CB1" stop-opacity="0"></stop> </radialGradient> <radialGradient id="paint17_radial" cx="0" cy="0" r="1" gradientUnits="userSpaceOnUse" gradientTransform="translate(401.5 705.5) rotate(90) scale(9.5)"> <stop stop-color="#297CB1"></stop> <stop offset="1" stop-color="#297CB1" stop-opacity="0"></stop> </radialGradient> <radialGradient id="paint18_radial" cx="0" cy="0" r="1" gradientUnits="userSpaceOnUse" gradientTransform="translate(337.5 369.5) rotate(90) scale(9.5)"> <stop stop-color="#297CB1"></stop> <stop offset="1" stop-color="#297CB1" stop-opacity="0"></stop> </radialGradient> <radialGradient id="paint19_radial" cx="0" cy="0" r="1" gradientUnits="userSpaceOnUse" gradientTransform="translate(333.5 462.5) rotate(90) scale(9.5)"> <stop stop-color="#297CB1"></stop> <stop offset="1" stop-color="#297CB1" stop-opacity="0"></stop> </radialGradient> <radialGradient id="paint20_radial" cx="0" cy="0" r="1" gradientUnits="userSpaceOnUse" gradientTransform="translate(22.5 9.5) rotate(90) scale(9.5)"> <stop stop-color="#297CB1"></stop> <stop offset="1" stop-color="#297CB1" stop-opacity="0"></stop> </radialGradient> <radialGradient id="paint21_radial" cx="0" cy="0" r="1" gradientUnits="userSpaceOnUse" gradientTransform="translate(5.5 48.5) rotate(90) scale(5.5)"> <stop stop-color="#297CB1"></stop> <stop offset="1" stop-color="#297CB1" stop-opacity="0"></stop> </radialGradient> <radialGradient id="paint22_radial" cx="0" cy="0" r="1" gradientUnits="userSpaceOnUse" gradientTransform="translate(87.5 93.5) rotate(90) scale(9.5)"> <stop stop-color="#297CB1"></stop> <stop offset="1" stop-color="#297CB1" stop-opacity="0"></stop> </radialGradient> <radialGradient id="paint23_radial" cx="0" cy="0" r="1" gradientUnits="userSpaceOnUse" gradientTransform="translate(201.5 84.5) rotate(90) scale(7.5)"> <stop stop-color="#297CB1"></stop> <stop offset="1" stop-color="#297CB1" stop-opacity="0"></stop> </radialGradient> <radialGradient id="paint24_radial" cx="0" cy="0" r="1" gradientUnits="userSpaceOnUse" gradientTransform="translate(463.5 585.5) rotate(90) scale(18.5)"> <stop stop-color="#297CB1"></stop> <stop offset="1" stop-color="#297CB1" stop-opacity="0"></stop> </radialGradient> </defs> </svg> 