<?xml version="1.0" encoding="UTF-8"?> <svg xmlns="http://www.w3.org/2000/svg" width="760" height="779" viewBox="0 0 760 779" fill="none"> <path d="M291.246 750.894L18.7861 250.939L583.577 174.054L291.246 750.894Z" stroke="url(#paint0_linear)"></path> <path d="M598.5 174C598.5 182.008 592.008 188.5 584 188.5C575.992 188.5 569.5 182.008 569.5 174C569.5 165.992 575.992 159.5 584 159.5C592.008 159.5 598.5 165.992 598.5 174Z" fill="url(#paint1_radial)" stroke="#5CFFFE"></path> <path d="M320.5 749C320.5 765.292 307.292 778.5 291 778.5C274.708 778.5 261.5 765.292 261.5 749C261.5 732.708 274.708 719.5 291 719.5C307.292 719.5 320.5 732.708 320.5 749Z" fill="url(#paint2_radial)" stroke="#5CFFFE"></path> <path d="M36.5 250.5C36.5 260.441 28.4411 268.5 18.5 268.5C8.55887 268.5 0.5 260.441 0.5 250.5C0.5 240.559 8.55887 232.5 18.5 232.5C28.4411 232.5 36.5 240.559 36.5 250.5Z" fill="url(#paint3_radial)" stroke="#297CB1"></path> <defs> <linearGradient id="paint0_linear" x1="18.0003" y1="250.541" x2="577.479" y2="534.073" gradientUnits="userSpaceOnUse"> <stop stop-color="#00558C"></stop> <stop offset="1" stop-color="#5CFFFE"></stop> </linearGradient> <radialGradient id="paint1_radial" cx="0" cy="0" r="1" gradientUnits="userSpaceOnUse" gradientTransform="translate(584 174) rotate(90) scale(15)"> <stop stop-color="#5CFFFE"></stop> <stop offset="1" stop-color="#5CFFFE" stop-opacity="0"></stop> </radialGradient> <radialGradient id="paint2_radial" cx="0" cy="0" r="1" gradientUnits="userSpaceOnUse" gradientTransform="translate(291 749) rotate(90) scale(30)"> <stop stop-color="#5CFFFE"></stop> <stop offset="1" stop-color="#5CFFFE" stop-opacity="0"></stop> </radialGradient> <radialGradient id="paint3_radial" cx="0" cy="0" r="1" gradientUnits="userSpaceOnUse" gradientTransform="translate(18.5 250.5) rotate(90) scale(18.5)"> <stop stop-color="#297CB1"></stop> <stop offset="1" stop-color="#297CB1" stop-opacity="0"></stop> </radialGradient> </defs> </svg> 