<?xml version="1.0" encoding="UTF-8"?> <svg xmlns="http://www.w3.org/2000/svg" width="201" height="91" viewBox="0 0 201 91" fill="none"> <path d="M14.3926 84.3804V75.0859C14.3926 73.6445 14.0894 72.5986 13.4829 71.9482C12.8765 71.2891 11.936 70.9595 10.6616 70.9595C8.94775 70.9595 7.69092 71.3945 6.89111 72.2646C6.1001 73.126 5.70459 74.5278 5.70459 76.4702V84.3804H4.39941V70.0498H5.50684L5.75732 72.0142H5.83643C6.76807 70.52 8.4248 69.7729 10.8066 69.7729C14.0586 69.7729 15.6846 71.5176 15.6846 75.0068V84.3804H14.3926Z" fill="#D4E4F0"></path> <path d="M32.7172 77.1953C32.7172 79.5332 32.1504 81.3613 31.0166 82.6797C29.8828 83.9893 28.3183 84.644 26.3232 84.644C25.0664 84.644 23.9589 84.3408 23.0009 83.7344C22.0429 83.1279 21.309 82.2578 20.7993 81.124C20.2895 79.9902 20.0346 78.6807 20.0346 77.1953C20.0346 74.8574 20.6015 73.0381 21.7353 71.7373C22.8691 70.4277 24.4248 69.7729 26.4023 69.7729C28.3711 69.7729 29.9135 70.4365 31.0297 71.7637C32.1547 73.082 32.7172 74.8926 32.7172 77.1953ZM21.4057 77.1953C21.4057 79.1641 21.8364 80.7021 22.6977 81.8096C23.5678 82.9082 24.7939 83.4575 26.3759 83.4575C27.958 83.4575 29.1796 82.9082 30.041 81.8096C30.9111 80.7021 31.3462 79.1641 31.3462 77.1953C31.3462 75.2178 30.9067 73.6841 30.0278 72.5942C29.1577 71.5044 27.9316 70.9595 26.3496 70.9595C24.7675 70.9595 23.5459 71.5044 22.6845 72.5942C21.832 73.6753 21.4057 75.209 21.4057 77.1953Z" fill="#D4E4F0"></path> <path d="M42.4726 69.7729C43.5097 69.7729 44.4062 69.9619 45.162 70.3398C45.9179 70.7178 46.5947 71.3638 47.1923 72.2778H47.2714C47.2187 71.1704 47.1923 70.085 47.1923 69.0215V63.8667H48.4843V84.3804H47.6274L47.2978 82.1919H47.1923C46.1025 83.8267 44.538 84.644 42.4989 84.644C40.5214 84.644 39.0097 84.0288 37.9638 82.7983C36.9179 81.5679 36.3949 79.7749 36.3949 77.4194C36.3949 74.9409 36.9135 73.0469 37.9506 71.7373C38.9877 70.4277 40.495 69.7729 42.4726 69.7729ZM42.4726 70.9595C40.9081 70.9595 39.7304 71.5088 38.9394 72.6074C38.1572 73.7061 37.766 75.3013 37.766 77.3931C37.766 81.4536 39.3437 83.4839 42.4989 83.4839C44.1161 83.4839 45.3027 83.0137 46.0585 82.0732C46.8144 81.1328 47.1923 79.5815 47.1923 77.4194V77.1953C47.1923 74.9805 46.8188 73.3896 46.0717 72.4229C45.3334 71.4473 44.1337 70.9595 42.4726 70.9595Z" fill="#D4E4F0"></path> <path d="M59.6371 84.644C57.5541 84.644 55.9281 84.0024 54.7592 82.7192C53.599 81.436 53.0189 79.6387 53.0189 77.3271C53.0189 75.042 53.5814 73.2139 54.7064 71.8428C55.8314 70.4629 57.3475 69.7729 59.2548 69.7729C60.9423 69.7729 62.2738 70.3618 63.2494 71.5396C64.225 72.7173 64.7128 74.3169 64.7128 76.3384V77.3931H54.39C54.4076 79.3618 54.8646 80.8647 55.7611 81.9019C56.6664 82.939 57.9584 83.4575 59.6371 83.4575C60.4545 83.4575 61.1708 83.4004 61.786 83.2861C62.41 83.1719 63.1967 82.9258 64.1459 82.5479V83.7344C63.3373 84.0859 62.5902 84.3232 61.9047 84.4463C61.2191 84.5781 60.4633 84.644 59.6371 84.644ZM59.2548 70.9331C57.8749 70.9331 56.7675 71.3901 55.9325 72.3042C55.0975 73.2095 54.6097 74.519 54.4691 76.2329H63.3285C63.3285 74.5718 62.9681 73.2754 62.2474 72.3438C61.5267 71.4033 60.5292 70.9331 59.2548 70.9331Z" fill="#D4E4F0"></path> <path d="M78.0936 80.6494C78.0936 81.9326 77.6058 82.9214 76.6302 83.6157C75.6546 84.3013 74.2704 84.644 72.4774 84.644C70.5614 84.644 69.0409 84.3496 67.9159 83.7607V82.3501C69.3573 83.0708 70.8778 83.4312 72.4774 83.4312C73.8924 83.4312 74.9647 83.1982 75.6942 82.7324C76.4325 82.2578 76.8016 81.6294 76.8016 80.8472C76.8016 80.1265 76.5072 79.52 75.9183 79.0278C75.3382 78.5356 74.3802 78.0522 73.0443 77.5776C71.6117 77.0591 70.6053 76.6152 70.0252 76.2461C69.4452 75.8682 69.0057 75.4463 68.7069 74.9805C68.4168 74.5059 68.2718 73.9302 68.2718 73.2534C68.2718 72.1812 68.7201 71.333 69.6165 70.709C70.5218 70.085 71.7831 69.7729 73.4002 69.7729C74.9471 69.7729 76.4149 70.063 77.8036 70.6431L77.3158 71.8296C75.9095 71.2495 74.6043 70.9595 73.4002 70.9595C72.2313 70.9595 71.304 71.1528 70.6185 71.5396C69.933 71.9263 69.5902 72.4624 69.5902 73.1479C69.5902 73.895 69.8539 74.4927 70.3812 74.9409C70.9173 75.3892 71.9588 75.8901 73.5057 76.4438C74.7977 76.9097 75.7381 77.3315 76.327 77.7095C76.9159 78.0786 77.3553 78.5005 77.6454 78.9751C77.9442 79.4497 78.0936 80.0078 78.0936 80.6494Z" fill="#D4E4F0"></path> <path d="M101.731 77.1953C101.731 79.5332 101.164 81.3613 100.03 82.6797C98.8962 83.9893 97.3318 84.644 95.3367 84.644C94.0798 84.644 92.9724 84.3408 92.0144 83.7344C91.0564 83.1279 90.3225 82.2578 89.8128 81.124C89.303 79.9902 89.0481 78.6807 89.0481 77.1953C89.0481 74.8574 89.615 73.0381 90.7488 71.7373C91.8826 70.4277 93.4382 69.7729 95.4158 69.7729C97.3845 69.7729 98.927 70.4365 100.043 71.7637C101.168 73.082 101.731 74.8926 101.731 77.1953ZM90.4192 77.1953C90.4192 79.1641 90.8499 80.7021 91.7112 81.8096C92.5813 82.9082 93.8074 83.4575 95.3894 83.4575C96.9714 83.4575 98.1931 82.9082 99.0545 81.8096C99.9246 80.7021 100.36 79.1641 100.36 77.1953C100.36 75.2178 99.9202 73.6841 99.0413 72.5942C98.1712 71.5044 96.9451 70.9595 95.363 70.9595C93.781 70.9595 92.5593 71.5044 91.698 72.5942C90.8455 73.6753 90.4192 75.209 90.4192 77.1953Z" fill="#D4E4F0"></path> <path d="M112.369 84.644C110.163 84.644 108.555 83.8179 107.544 82.1655H107.452L107.491 83.2729C107.527 83.9233 107.544 84.6353 107.544 85.4087V90.8667H106.239V70.0498H107.346L107.597 72.0933H107.676C108.66 70.5464 110.234 69.7729 112.396 69.7729C114.329 69.7729 115.801 70.4102 116.812 71.6846C117.832 72.9502 118.342 74.7959 118.342 77.2217C118.342 79.5771 117.805 81.4053 116.733 82.7061C115.67 83.998 114.215 84.644 112.369 84.644ZM112.343 83.4839C113.811 83.4839 114.945 82.939 115.744 81.8491C116.553 80.7593 116.957 79.2344 116.957 77.2744C116.957 73.0645 115.437 70.9595 112.396 70.9595C110.726 70.9595 109.5 71.4209 108.717 72.3438C107.935 73.2578 107.544 74.752 107.544 76.8262V77.248C107.544 79.4893 107.918 81.0889 108.665 82.0469C109.421 83.0049 110.647 83.4839 112.343 83.4839Z" fill="#D4E4F0"></path> <path d="M128.651 84.644C126.568 84.644 124.942 84.0024 123.773 82.7192C122.612 81.436 122.032 79.6387 122.032 77.3271C122.032 75.042 122.595 73.2139 123.72 71.8428C124.845 70.4629 126.361 69.7729 128.268 69.7729C129.956 69.7729 131.287 70.3618 132.263 71.5396C133.238 72.7173 133.726 74.3169 133.726 76.3384V77.3931H123.403C123.421 79.3618 123.878 80.8647 124.775 81.9019C125.68 82.939 126.972 83.4575 128.651 83.4575C129.468 83.4575 130.184 83.4004 130.799 83.2861C131.424 83.1719 132.21 82.9258 133.159 82.5479V83.7344C132.351 84.0859 131.604 84.3232 130.918 84.4463C130.233 84.5781 129.477 84.644 128.651 84.644ZM128.268 70.9331C126.888 70.9331 125.781 71.3901 124.946 72.3042C124.111 73.2095 123.623 74.519 123.483 76.2329H132.342C132.342 74.5718 131.982 73.2754 131.261 72.3438C130.54 71.4033 129.543 70.9331 128.268 70.9331Z" fill="#D4E4F0"></path> <path d="M143.864 69.7729C144.47 69.7729 145.121 69.8345 145.815 69.9575L145.565 71.21C144.967 71.0605 144.347 70.9858 143.706 70.9858C142.484 70.9858 141.482 71.5044 140.7 72.5415C139.918 73.5786 139.527 74.8882 139.527 76.4702V84.3804H138.221V70.0498H139.329L139.461 72.6338H139.553C140.142 71.5791 140.77 70.8408 141.438 70.4189C142.106 69.9883 142.915 69.7729 143.864 69.7729Z" fill="#D4E4F0"></path> <path d="M157.983 84.3804L157.653 82.1128H157.548C156.827 83.0356 156.085 83.6904 155.32 84.0771C154.564 84.4551 153.668 84.644 152.63 84.644C151.224 84.644 150.13 84.2837 149.348 83.563C148.566 82.8423 148.174 81.8447 148.174 80.5703C148.174 79.1729 148.754 78.0874 149.915 77.314C151.084 76.5405 152.771 76.1318 154.977 76.0879L157.706 76.0088V75.0596C157.706 73.6973 157.429 72.6689 156.876 71.9746C156.322 71.2803 155.43 70.9331 154.199 70.9331C152.872 70.9331 151.497 71.3022 150.073 72.0405L149.585 70.9067C151.158 70.1685 152.714 69.7993 154.252 69.7993C155.825 69.7993 156.999 70.208 157.772 71.0254C158.554 71.8428 158.945 73.1172 158.945 74.8486V84.3804H157.983ZM152.71 83.4575C154.239 83.4575 155.443 83.0225 156.322 82.1523C157.21 81.2734 157.653 80.0562 157.653 78.5005V77.0898L155.149 77.1953C153.136 77.292 151.699 77.6084 150.837 78.1445C149.985 78.6719 149.559 79.498 149.559 80.623C149.559 81.5195 149.831 82.2183 150.376 82.7192C150.93 83.2114 151.708 83.4575 152.71 83.4575Z" fill="#D4E4F0"></path> <path d="M167.923 83.4839C168.749 83.4839 169.47 83.4136 170.085 83.2729V84.3276C169.452 84.5386 168.723 84.644 167.897 84.644C166.631 84.644 165.695 84.3057 165.088 83.6289C164.491 82.9521 164.192 81.8887 164.192 80.4385V71.1836H162.069V70.4189L164.192 69.8257L164.851 66.5825H165.523V70.0498H169.729V71.1836H165.523V80.2539C165.523 81.3525 165.717 82.1655 166.104 82.6929C166.49 83.2202 167.097 83.4839 167.923 83.4839Z" fill="#D4E4F0"></path> <path d="M185.575 77.1953C185.575 79.5332 185.008 81.3613 183.875 82.6797C182.741 83.9893 181.176 84.644 179.181 84.644C177.924 84.644 176.817 84.3408 175.859 83.7344C174.901 83.1279 174.167 82.2578 173.657 81.124C173.147 79.9902 172.893 78.6807 172.893 77.1953C172.893 74.8574 173.459 73.0381 174.593 71.7373C175.727 70.4277 177.283 69.7729 179.26 69.7729C181.229 69.7729 182.771 70.4365 183.888 71.7637C185.013 73.082 185.575 74.8926 185.575 77.1953ZM174.264 77.1953C174.264 79.1641 174.694 80.7021 175.556 81.8096C176.426 82.9082 177.652 83.4575 179.234 83.4575C180.816 83.4575 182.038 82.9082 182.899 81.8096C183.769 80.7021 184.204 79.1641 184.204 77.1953C184.204 75.2178 183.765 73.6841 182.886 72.5942C182.016 71.5044 180.79 70.9595 179.208 70.9595C177.626 70.9595 176.404 71.5044 175.542 72.5942C174.69 73.6753 174.264 75.209 174.264 77.1953Z" fill="#D4E4F0"></path> <path d="M195.726 69.7729C196.333 69.7729 196.983 69.8345 197.677 69.9575L197.427 71.21C196.829 71.0605 196.209 70.9858 195.568 70.9858C194.346 70.9858 193.344 71.5044 192.562 72.5415C191.78 73.5786 191.389 74.8882 191.389 76.4702V84.3804H190.083V70.0498H191.191L191.323 72.6338H191.415C192.004 71.5791 192.632 70.8408 193.3 70.4189C193.968 69.9883 194.777 69.7729 195.726 69.7729Z" fill="#D4E4F0"></path> <mask id="path-2-outside-1" maskUnits="userSpaceOnUse" x="0" y="0" width="201" height="52" fill="black"> <rect fill="white" width="201" height="52"></rect> <path d="M8.21875 14.0717C8.21875 15.7675 8.49375 17.2571 9.04375 18.5404C9.59375 19.7779 10.2813 20.9008 11.1063 21.9092C11.9771 22.9175 12.8938 23.88 13.8563 24.7967C14.8188 25.7133 15.7125 26.6987 16.5375 27.7529C17.4083 28.7612 18.1188 29.93 18.6688 31.2592C19.2188 32.5425 19.4938 34.1008 19.4938 35.9342V42.1904C19.4938 43.7029 19.2417 44.9862 18.7375 46.0404C18.2333 47.0946 17.5458 47.9425 16.675 48.5842C15.8042 49.2258 14.7729 49.6842 13.5813 49.9592C12.4354 50.28 11.175 50.4175 9.8 50.3717C7.05 50.3258 4.89583 49.7071 3.3375 48.5154C1.77917 47.3237 1 45.2154 1 42.1904V35.0404H7.53125V39.8529C7.53125 40.4487 7.55417 41.0217 7.6 41.5717C7.64583 42.0758 7.7375 42.5342 7.875 42.9467C8.05833 43.3592 8.31042 43.68 8.63125 43.9092C8.95208 44.1383 9.36458 44.2529 9.86875 44.2529C10.3729 44.2529 10.7854 44.1383 11.1063 43.9092C11.4271 43.6342 11.6563 43.2904 11.7938 42.8779C11.9771 42.4654 12.0917 42.0071 12.1375 41.5029C12.1833 40.9529 12.2063 40.4029 12.2063 39.8529V37.7904C12.2063 36.0487 11.9313 34.605 11.3813 33.4592C10.8771 32.2675 10.2354 31.2133 9.45625 30.2967C8.67708 29.3342 7.82917 28.4404 6.9125 27.6154C6.04167 26.7446 5.21667 25.7592 4.4375 24.6592C3.65833 23.5133 2.99375 22.1842 2.44375 20.6717C1.93958 19.1592 1.6875 17.28 1.6875 15.0342V9.19041C1.6875 6.16541 2.48958 4.03416 4.09375 2.79666C5.69792 1.51333 7.875 0.917499 10.625 1.00917C13.375 1.055 15.5292 1.67375 17.0875 2.86541C18.6917 4.05708 19.4938 6.16541 19.4938 9.19041V17.3029H12.8938V11.5279C12.8938 10.3362 12.7563 9.32791 12.4813 8.50291C12.2521 7.63208 11.6104 7.19666 10.5563 7.19666C9.50208 7.19666 8.8375 7.63208 8.5625 8.50291C8.33333 9.37375 8.21875 10.3821 8.21875 11.5279V14.0717Z"></path> <path d="M41.2069 40.9529C41.2069 42.7862 41.0007 44.2987 40.5882 45.4904C40.1757 46.6821 39.6028 47.6217 38.8694 48.3092C38.1819 48.9967 37.3111 49.4779 36.2569 49.7529C35.2486 50.0279 34.1257 50.1654 32.8882 50.1654C31.6049 50.1654 30.4361 50.0279 29.3819 49.7529C28.3736 49.4779 27.5028 48.9967 26.7694 48.3092C26.0819 47.6217 25.5548 46.6821 25.1882 45.4904C24.8215 44.2987 24.6382 42.7862 24.6382 40.9529V22.4592C24.6382 20.9467 24.8215 19.6862 25.1882 18.6779C25.5548 17.6696 26.0819 16.8675 26.7694 16.2717C27.5028 15.6758 28.3736 15.2633 29.3819 15.0342C30.4361 14.7592 31.6049 14.6217 32.8882 14.6217C35.3632 14.5758 37.3569 15.1258 38.8694 16.2717C40.4278 17.3717 41.2069 19.4342 41.2069 22.4592V40.9529ZM32.8882 20.1217C31.9257 20.1217 31.3069 20.4196 31.0319 21.0154C30.7569 21.6112 30.6194 22.4133 30.6194 23.4217V40.7467C30.6194 42.2133 30.7569 43.2446 31.0319 43.8404C31.3069 44.4362 31.9257 44.7342 32.8882 44.7342C33.8965 44.7342 34.5382 44.4362 34.8132 43.8404C35.0882 43.2446 35.2257 42.2133 35.2257 40.7467V23.4217C35.2257 22.3675 35.0882 21.5654 34.8132 21.0154C34.5382 20.4196 33.8965 20.1217 32.8882 20.1217Z"></path> <path d="M53.5669 4.17166V49.6842H47.3794V4.17166H53.5669Z"></path> <path d="M65.9688 15.3092V49.6842H59.7813V15.3092H65.9688ZM59.85 7.67792H65.9688V13.6592H59.85V7.67792Z"></path> <path d="M82.4956 45.3529H82.0831C81.8998 46.7279 81.4644 47.805 80.7769 48.5842C80.1352 49.3175 79.081 49.6842 77.6144 49.6842C75.5977 49.6842 74.1998 49.0883 73.4206 47.8967C72.6414 46.6592 72.2519 45.0321 72.2519 43.0154L72.1831 30.5717V29.4717L72.2519 21.9779C72.2977 19.9612 72.6873 18.3571 73.4206 17.1654C74.1998 15.9279 75.5977 15.3092 77.6144 15.3092C79.081 15.3092 80.1352 15.6987 80.7769 16.4779C81.4644 17.2112 81.8998 18.2654 82.0831 19.6404H82.4956V4.17166H88.6831V49.6842H82.4956V45.3529ZM82.4956 21.0154C80.8914 20.4654 79.7685 20.4883 79.1269 21.0842C78.4852 21.68 78.1644 22.7571 78.1644 24.3154V40.6779C78.1644 42.2362 78.4852 43.3133 79.1269 43.9092C79.7685 44.505 80.8914 44.5279 82.4956 43.9779V21.0154Z"></path> <path d="M112.372 14.0717C112.372 15.7675 112.647 17.2571 113.197 18.5404C113.747 19.7779 114.435 20.9008 115.26 21.9092C116.131 22.9175 117.047 23.88 118.01 24.7967C118.972 25.7133 119.866 26.6987 120.691 27.7529C121.562 28.7612 122.272 29.93 122.822 31.2592C123.372 32.5425 123.647 34.1008 123.647 35.9342V42.1904C123.647 43.7029 123.395 44.9862 122.891 46.0404C122.387 47.0946 121.699 47.9425 120.829 48.5842C119.958 49.2258 118.926 49.6842 117.735 49.9592C116.589 50.28 115.329 50.4175 113.954 50.3717C111.204 50.3258 109.049 49.7071 107.491 48.5154C105.933 47.3237 105.154 45.2154 105.154 42.1904V35.0404H111.685V39.8529C111.685 40.4487 111.708 41.0217 111.754 41.5717C111.799 42.0758 111.891 42.5342 112.029 42.9467C112.212 43.3592 112.464 43.68 112.785 43.9092C113.106 44.1383 113.518 44.2529 114.022 44.2529C114.526 44.2529 114.939 44.1383 115.26 43.9092C115.581 43.6342 115.81 43.2904 115.947 42.8779C116.131 42.4654 116.245 42.0071 116.291 41.5029C116.337 40.9529 116.36 40.4029 116.36 39.8529V37.7904C116.36 36.0487 116.085 34.605 115.535 33.4592C115.031 32.2675 114.389 31.2133 113.61 30.2967C112.831 29.3342 111.983 28.4404 111.066 27.6154C110.195 26.7446 109.37 25.7592 108.591 24.6592C107.812 23.5133 107.147 22.1842 106.597 20.6717C106.093 19.1592 105.841 17.28 105.841 15.0342V9.19041C105.841 6.16541 106.643 4.03416 108.247 2.79666C109.851 1.51333 112.029 0.917499 114.779 1.00917C117.529 1.055 119.683 1.67375 121.241 2.86541C122.845 4.05708 123.647 6.16541 123.647 9.19041V17.3029H117.047V11.5279C117.047 10.3362 116.91 9.32791 116.635 8.50291C116.406 7.63208 115.764 7.19666 114.71 7.19666C113.656 7.19666 112.991 7.63208 112.716 8.50291C112.487 9.37375 112.372 10.3821 112.372 11.5279V14.0717Z"></path> <path d="M139.517 49.6842H138.348C136.973 49.6842 135.758 49.5925 134.704 49.4092C133.65 49.2258 132.756 48.8133 132.023 48.1717C131.29 47.53 130.74 46.6133 130.373 45.4217C130.006 44.1842 129.823 42.5571 129.823 40.5404V11.9404H135.735V40.2654C135.735 42.0071 135.965 43.1529 136.423 43.7029C136.927 44.2071 137.913 44.3446 139.379 44.1154L139.517 49.6842ZM128.104 21.4967V15.3092H139.104V21.4967H128.104Z"></path> <path d="M154.997 45.3529H154.585C154.401 46.7279 153.966 47.805 153.279 48.5842C152.637 49.3175 151.583 49.6842 150.116 49.6842C148.099 49.6842 146.701 49.0883 145.922 47.8967C145.143 46.6592 144.754 45.0321 144.754 43.0154L144.685 30.5717V29.4717L144.754 21.9779C144.754 19.9612 145.143 18.3571 145.922 17.1654C146.701 15.9279 148.099 15.3092 150.116 15.3092C151.583 15.3092 152.637 15.6987 153.279 16.4779C153.966 17.2112 154.401 18.2654 154.585 19.6404H154.997V15.3092H161.185V49.6842H154.997V45.3529ZM154.997 21.0154C153.393 20.4654 152.27 20.4883 151.629 21.0842C150.987 21.68 150.666 22.7571 150.666 24.3154V40.6779C150.666 42.2362 150.987 43.3133 151.629 43.9092C152.27 44.505 153.393 44.5279 154.997 43.9779V21.0154Z"></path> <path d="M178.084 49.6842H176.915C175.54 49.6842 174.326 49.5925 173.271 49.4092C172.217 49.2258 171.323 48.8133 170.59 48.1717C169.857 47.53 169.307 46.6133 168.94 45.4217C168.573 44.1842 168.39 42.5571 168.39 40.5404V11.9404H174.303V40.2654C174.303 42.0071 174.532 43.1529 174.99 43.7029C175.494 44.2071 176.48 44.3446 177.946 44.1154L178.084 49.6842ZM166.671 21.4967V15.3092H177.671V21.4967H166.671Z"></path> <path d="M191.571 44.2529C192.533 44.2071 193.129 43.8862 193.358 43.2904C193.633 42.6487 193.771 41.5946 193.771 40.1279H199.752V41.1592C199.752 42.9925 199.614 44.4821 199.339 45.6279C199.064 46.7279 198.606 47.5987 197.964 48.2404C197.369 48.8362 196.544 49.2258 195.489 49.4092C194.481 49.5925 193.244 49.6842 191.777 49.6842C190.402 49.6842 189.164 49.5925 188.064 49.4092C187.01 49.2258 186.117 48.8133 185.383 48.1717C184.696 47.53 184.169 46.6133 183.802 45.4217C183.435 44.1842 183.252 42.5342 183.252 40.4717V22.9404C183.252 19.9154 183.939 17.8758 185.314 16.8217C186.735 15.7217 188.821 15.1487 191.571 15.1029C194.275 15.0571 196.314 15.6071 197.689 16.7529C199.064 17.8529 199.752 19.9154 199.752 22.9404V33.7342H189.164V40.3342C189.164 41.8008 189.325 42.8092 189.646 43.3592C189.967 43.9092 190.608 44.2071 191.571 44.2529ZM193.771 28.9217V23.9029C193.771 22.7112 193.656 21.8633 193.427 21.3592C193.198 20.855 192.533 20.6029 191.433 20.6029C190.379 20.6029 189.737 20.8779 189.508 21.4279C189.279 21.9321 189.164 22.7571 189.164 23.9029V28.9217H193.771Z"></path> </mask> <path d="M8.21875 14.0717C8.21875 15.7675 8.49375 17.2571 9.04375 18.5404C9.59375 19.7779 10.2813 20.9008 11.1063 21.9092C11.9771 22.9175 12.8938 23.88 13.8563 24.7967C14.8188 25.7133 15.7125 26.6987 16.5375 27.7529C17.4083 28.7612 18.1188 29.93 18.6688 31.2592C19.2188 32.5425 19.4938 34.1008 19.4938 35.9342V42.1904C19.4938 43.7029 19.2417 44.9862 18.7375 46.0404C18.2333 47.0946 17.5458 47.9425 16.675 48.5842C15.8042 49.2258 14.7729 49.6842 13.5813 49.9592C12.4354 50.28 11.175 50.4175 9.8 50.3717C7.05 50.3258 4.89583 49.7071 3.3375 48.5154C1.77917 47.3237 1 45.2154 1 42.1904V35.0404H7.53125V39.8529C7.53125 40.4487 7.55417 41.0217 7.6 41.5717C7.64583 42.0758 7.7375 42.5342 7.875 42.9467C8.05833 43.3592 8.31042 43.68 8.63125 43.9092C8.95208 44.1383 9.36458 44.2529 9.86875 44.2529C10.3729 44.2529 10.7854 44.1383 11.1063 43.9092C11.4271 43.6342 11.6563 43.2904 11.7938 42.8779C11.9771 42.4654 12.0917 42.0071 12.1375 41.5029C12.1833 40.9529 12.2063 40.4029 12.2063 39.8529V37.7904C12.2063 36.0487 11.9313 34.605 11.3813 33.4592C10.8771 32.2675 10.2354 31.2133 9.45625 30.2967C8.67708 29.3342 7.82917 28.4404 6.9125 27.6154C6.04167 26.7446 5.21667 25.7592 4.4375 24.6592C3.65833 23.5133 2.99375 22.1842 2.44375 20.6717C1.93958 19.1592 1.6875 17.28 1.6875 15.0342V9.19041C1.6875 6.16541 2.48958 4.03416 4.09375 2.79666C5.69792 1.51333 7.875 0.917499 10.625 1.00917C13.375 1.055 15.5292 1.67375 17.0875 2.86541C18.6917 4.05708 19.4938 6.16541 19.4938 9.19041V17.3029H12.8938V11.5279C12.8938 10.3362 12.7563 9.32791 12.4813 8.50291C12.2521 7.63208 11.6104 7.19666 10.5563 7.19666C9.50208 7.19666 8.8375 7.63208 8.5625 8.50291C8.33333 9.37375 8.21875 10.3821 8.21875 11.5279V14.0717Z" stroke="url(#paint0_linear)" stroke-width="2" mask="url(#path-2-outside-1)"></path> <path d="M41.2069 40.9529C41.2069 42.7862 41.0007 44.2987 40.5882 45.4904C40.1757 46.6821 39.6028 47.6217 38.8694 48.3092C38.1819 48.9967 37.3111 49.4779 36.2569 49.7529C35.2486 50.0279 34.1257 50.1654 32.8882 50.1654C31.6049 50.1654 30.4361 50.0279 29.3819 49.7529C28.3736 49.4779 27.5028 48.9967 26.7694 48.3092C26.0819 47.6217 25.5548 46.6821 25.1882 45.4904C24.8215 44.2987 24.6382 42.7862 24.6382 40.9529V22.4592C24.6382 20.9467 24.8215 19.6862 25.1882 18.6779C25.5548 17.6696 26.0819 16.8675 26.7694 16.2717C27.5028 15.6758 28.3736 15.2633 29.3819 15.0342C30.4361 14.7592 31.6049 14.6217 32.8882 14.6217C35.3632 14.5758 37.3569 15.1258 38.8694 16.2717C40.4278 17.3717 41.2069 19.4342 41.2069 22.4592V40.9529ZM32.8882 20.1217C31.9257 20.1217 31.3069 20.4196 31.0319 21.0154C30.7569 21.6112 30.6194 22.4133 30.6194 23.4217V40.7467C30.6194 42.2133 30.7569 43.2446 31.0319 43.8404C31.3069 44.4362 31.9257 44.7342 32.8882 44.7342C33.8965 44.7342 34.5382 44.4362 34.8132 43.8404C35.0882 43.2446 35.2257 42.2133 35.2257 40.7467V23.4217C35.2257 22.3675 35.0882 21.5654 34.8132 21.0154C34.5382 20.4196 33.8965 20.1217 32.8882 20.1217Z" stroke="url(#paint1_linear)" stroke-width="2" mask="url(#path-2-outside-1)"></path> <path d="M53.5669 4.17166V49.6842H47.3794V4.17166H53.5669Z" stroke="url(#paint2_linear)" stroke-width="2" mask="url(#path-2-outside-1)"></path> <path d="M65.9688 15.3092V49.6842H59.7813V15.3092H65.9688ZM59.85 7.67792H65.9688V13.6592H59.85V7.67792Z" stroke="url(#paint3_linear)" stroke-width="2" mask="url(#path-2-outside-1)"></path> <path d="M82.4956 45.3529H82.0831C81.8998 46.7279 81.4644 47.805 80.7769 48.5842C80.1352 49.3175 79.081 49.6842 77.6144 49.6842C75.5977 49.6842 74.1998 49.0883 73.4206 47.8967C72.6414 46.6592 72.2519 45.0321 72.2519 43.0154L72.1831 30.5717V29.4717L72.2519 21.9779C72.2977 19.9612 72.6873 18.3571 73.4206 17.1654C74.1998 15.9279 75.5977 15.3092 77.6144 15.3092C79.081 15.3092 80.1352 15.6987 80.7769 16.4779C81.4644 17.2112 81.8998 18.2654 82.0831 19.6404H82.4956V4.17166H88.6831V49.6842H82.4956V45.3529ZM82.4956 21.0154C80.8914 20.4654 79.7685 20.4883 79.1269 21.0842C78.4852 21.68 78.1644 22.7571 78.1644 24.3154V40.6779C78.1644 42.2362 78.4852 43.3133 79.1269 43.9092C79.7685 44.505 80.8914 44.5279 82.4956 43.9779V21.0154Z" stroke="url(#paint4_linear)" stroke-width="2" mask="url(#path-2-outside-1)"></path> <path d="M112.372 14.0717C112.372 15.7675 112.647 17.2571 113.197 18.5404C113.747 19.7779 114.435 20.9008 115.26 21.9092C116.131 22.9175 117.047 23.88 118.01 24.7967C118.972 25.7133 119.866 26.6987 120.691 27.7529C121.562 28.7612 122.272 29.93 122.822 31.2592C123.372 32.5425 123.647 34.1008 123.647 35.9342V42.1904C123.647 43.7029 123.395 44.9862 122.891 46.0404C122.387 47.0946 121.699 47.9425 120.829 48.5842C119.958 49.2258 118.926 49.6842 117.735 49.9592C116.589 50.28 115.329 50.4175 113.954 50.3717C111.204 50.3258 109.049 49.7071 107.491 48.5154C105.933 47.3237 105.154 45.2154 105.154 42.1904V35.0404H111.685V39.8529C111.685 40.4487 111.708 41.0217 111.754 41.5717C111.799 42.0758 111.891 42.5342 112.029 42.9467C112.212 43.3592 112.464 43.68 112.785 43.9092C113.106 44.1383 113.518 44.2529 114.022 44.2529C114.526 44.2529 114.939 44.1383 115.26 43.9092C115.581 43.6342 115.81 43.2904 115.947 42.8779C116.131 42.4654 116.245 42.0071 116.291 41.5029C116.337 40.9529 116.36 40.4029 116.36 39.8529V37.7904C116.36 36.0487 116.085 34.605 115.535 33.4592C115.031 32.2675 114.389 31.2133 113.61 30.2967C112.831 29.3342 111.983 28.4404 111.066 27.6154C110.195 26.7446 109.37 25.7592 108.591 24.6592C107.812 23.5133 107.147 22.1842 106.597 20.6717C106.093 19.1592 105.841 17.28 105.841 15.0342V9.19041C105.841 6.16541 106.643 4.03416 108.247 2.79666C109.851 1.51333 112.029 0.917499 114.779 1.00917C117.529 1.055 119.683 1.67375 121.241 2.86541C122.845 4.05708 123.647 6.16541 123.647 9.19041V17.3029H117.047V11.5279C117.047 10.3362 116.91 9.32791 116.635 8.50291C116.406 7.63208 115.764 7.19666 114.71 7.19666C113.656 7.19666 112.991 7.63208 112.716 8.50291C112.487 9.37375 112.372 10.3821 112.372 11.5279V14.0717Z" stroke="url(#paint5_linear)" stroke-width="2" mask="url(#path-2-outside-1)"></path> <path d="M139.517 49.6842H138.348C136.973 49.6842 135.758 49.5925 134.704 49.4092C133.65 49.2258 132.756 48.8133 132.023 48.1717C131.29 47.53 130.74 46.6133 130.373 45.4217C130.006 44.1842 129.823 42.5571 129.823 40.5404V11.9404H135.735V40.2654C135.735 42.0071 135.965 43.1529 136.423 43.7029C136.927 44.2071 137.913 44.3446 139.379 44.1154L139.517 49.6842ZM128.104 21.4967V15.3092H139.104V21.4967H128.104Z" stroke="url(#paint6_linear)" stroke-width="2" mask="url(#path-2-outside-1)"></path> <path d="M154.997 45.3529H154.585C154.401 46.7279 153.966 47.805 153.279 48.5842C152.637 49.3175 151.583 49.6842 150.116 49.6842C148.099 49.6842 146.701 49.0883 145.922 47.8967C145.143 46.6592 144.754 45.0321 144.754 43.0154L144.685 30.5717V29.4717L144.754 21.9779C144.754 19.9612 145.143 18.3571 145.922 17.1654C146.701 15.9279 148.099 15.3092 150.116 15.3092C151.583 15.3092 152.637 15.6987 153.279 16.4779C153.966 17.2112 154.401 18.2654 154.585 19.6404H154.997V15.3092H161.185V49.6842H154.997V45.3529ZM154.997 21.0154C153.393 20.4654 152.27 20.4883 151.629 21.0842C150.987 21.68 150.666 22.7571 150.666 24.3154V40.6779C150.666 42.2362 150.987 43.3133 151.629 43.9092C152.27 44.505 153.393 44.5279 154.997 43.9779V21.0154Z" stroke="url(#paint7_linear)" stroke-width="2" mask="url(#path-2-outside-1)"></path> <path d="M178.084 49.6842H176.915C175.54 49.6842 174.326 49.5925 173.271 49.4092C172.217 49.2258 171.323 48.8133 170.59 48.1717C169.857 47.53 169.307 46.6133 168.94 45.4217C168.573 44.1842 168.39 42.5571 168.39 40.5404V11.9404H174.303V40.2654C174.303 42.0071 174.532 43.1529 174.99 43.7029C175.494 44.2071 176.48 44.3446 177.946 44.1154L178.084 49.6842ZM166.671 21.4967V15.3092H177.671V21.4967H166.671Z" stroke="url(#paint8_linear)" stroke-width="2" mask="url(#path-2-outside-1)"></path> <path d="M191.571 44.2529C192.533 44.2071 193.129 43.8862 193.358 43.2904C193.633 42.6487 193.771 41.5946 193.771 40.1279H199.752V41.1592C199.752 42.9925 199.614 44.4821 199.339 45.6279C199.064 46.7279 198.606 47.5987 197.964 48.2404C197.369 48.8362 196.544 49.2258 195.489 49.4092C194.481 49.5925 193.244 49.6842 191.777 49.6842C190.402 49.6842 189.164 49.5925 188.064 49.4092C187.01 49.2258 186.117 48.8133 185.383 48.1717C184.696 47.53 184.169 46.6133 183.802 45.4217C183.435 44.1842 183.252 42.5342 183.252 40.4717V22.9404C183.252 19.9154 183.939 17.8758 185.314 16.8217C186.735 15.7217 188.821 15.1487 191.571 15.1029C194.275 15.0571 196.314 15.6071 197.689 16.7529C199.064 17.8529 199.752 19.9154 199.752 22.9404V33.7342H189.164V40.3342C189.164 41.8008 189.325 42.8092 189.646 43.3592C189.967 43.9092 190.608 44.2071 191.571 44.2529ZM193.771 28.9217V23.9029C193.771 22.7112 193.656 21.8633 193.427 21.3592C193.198 20.855 192.533 20.6029 191.433 20.6029C190.379 20.6029 189.737 20.8779 189.508 21.4279C189.279 21.9321 189.164 22.7571 189.164 23.9029V28.9217H193.771Z" stroke="url(#paint9_linear)" stroke-width="2" mask="url(#path-2-outside-1)"></path> <defs> <linearGradient id="paint0_linear" x1="79.5" y1="-25.5" x2="200" y2="70.5" gradientUnits="userSpaceOnUse"> <stop stop-color="#00558C"></stop> <stop offset="0.473214" stop-color="#4D9FD3"></stop> <stop offset="1" stop-color="#00558C"></stop> </linearGradient> <linearGradient id="paint1_linear" x1="79.5" y1="-25.5" x2="200" y2="70.5" gradientUnits="userSpaceOnUse"> <stop stop-color="#00558C"></stop> <stop offset="0.473214" stop-color="#4D9FD3"></stop> <stop offset="1" stop-color="#00558C"></stop> </linearGradient> <linearGradient id="paint2_linear" x1="79.5" y1="-25.5" x2="200" y2="70.5" gradientUnits="userSpaceOnUse"> <stop stop-color="#00558C"></stop> <stop offset="0.473214" stop-color="#4D9FD3"></stop> <stop offset="1" stop-color="#00558C"></stop> </linearGradient> <linearGradient id="paint3_linear" x1="79.5" y1="-25.5" x2="200" y2="70.5" gradientUnits="userSpaceOnUse"> <stop stop-color="#00558C"></stop> <stop offset="0.473214" stop-color="#4D9FD3"></stop> <stop offset="1" stop-color="#00558C"></stop> </linearGradient> <linearGradient id="paint4_linear" x1="79.5" y1="-25.5" x2="200" y2="70.5" gradientUnits="userSpaceOnUse"> <stop stop-color="#00558C"></stop> <stop offset="0.473214" stop-color="#4D9FD3"></stop> <stop offset="1" stop-color="#00558C"></stop> </linearGradient> <linearGradient id="paint5_linear" x1="79.5" y1="-25.5" x2="200" y2="70.5" gradientUnits="userSpaceOnUse"> <stop stop-color="#00558C"></stop> <stop offset="0.473214" stop-color="#4D9FD3"></stop> <stop offset="1" stop-color="#00558C"></stop> </linearGradient> <linearGradient id="paint6_linear" x1="79.5" y1="-25.5" x2="200" y2="70.5" gradientUnits="userSpaceOnUse"> <stop stop-color="#00558C"></stop> <stop offset="0.473214" stop-color="#4D9FD3"></stop> <stop offset="1" stop-color="#00558C"></stop> </linearGradient> <linearGradient id="paint7_linear" x1="79.5" y1="-25.5" x2="200" y2="70.5" gradientUnits="userSpaceOnUse"> <stop stop-color="#00558C"></stop> <stop offset="0.473214" stop-color="#4D9FD3"></stop> <stop offset="1" stop-color="#00558C"></stop> </linearGradient> <linearGradient id="paint8_linear" x1="79.5" y1="-25.5" x2="200" y2="70.5" gradientUnits="userSpaceOnUse"> <stop stop-color="#00558C"></stop> <stop offset="0.473214" stop-color="#4D9FD3"></stop> <stop offset="1" stop-color="#00558C"></stop> </linearGradient> <linearGradient id="paint9_linear" x1="79.5" y1="-25.5" x2="200" y2="70.5" gradientUnits="userSpaceOnUse"> <stop stop-color="#00558C"></stop> <stop offset="0.473214" stop-color="#4D9FD3"></stop> <stop offset="1" stop-color="#00558C"></stop> </linearGradient> </defs> </svg> 